<svg id="组件_2_1" data-name="组件 2 – 1" xmlns="http://www.w3.org/2000/svg" width="1278" height="425" viewBox="0 0 1278 425">
  <defs>
    <style>
      .cls-1, .cls-2, .cls-6 {
        fill: none;
      }

      .cls-1 {
        stroke: #0df;
        stroke-width: 25px;
      }

      .cls-3 {
        fill: #00b9ff;
        font-size: 200px;
        font-family: AlibabaPuHuiTi_2_85_Bold, 'Alibaba PuHuiTi \32 \.0';
      }

      .cls-4 {
        fill: #005fff;
      }

      .cls-5, .cls-7, .cls-8 {
        stroke: none;
      }

      .cls-7 {
        fill: #0df;
      }

      .cls-8 {
        fill: #005fff;
      }
    </style>
  </defs>
  <g id="组件_1_1" data-name="组件 1 – 1">
    <g id="矩形_1" data-name="矩形 1" class="cls-1">
      <rect class="cls-5" width="425" height="425" rx="150"/>
      <rect class="cls-6" x="12.5" y="12.5" width="400" height="400" rx="137.5"/>
    </g>
    <g id="多边形_1" data-name="多边形 1" class="cls-2" transform="translate(47.5 389.9) rotate(-90)">
      <path class="cls-5" d="M106.95,0l50.8,83.621L213.9,164.5l-106.95-2.742L0,164.5,56.149,83.621Z"/>
      <path class="cls-7" d="M 106.9500122070312 48.14974975585938 L 77.11943054199219 97.25210571289062 L 48.661376953125 138.2443695068359 L 106.9500122070312 136.7501525878906 L 165.2386474609375 138.2443695068359 L 136.7805938720703 97.25210571289062 L 106.9500122070312 48.14974975585938 M 106.9500122070312 0 L 157.7512817382812 83.62084197998047 L 213.9000091552734 164.5 L 106.9500122070312 161.7583618164062 L 1.52587890625e-05 164.5 L 56.14874267578125 83.62084197998047 L 106.9500122070312 0 Z"/>
    </g>
    <g id="多边形_2" data-name="多边形 2" class="cls-2" transform="translate(365.5 41) rotate(90)">
      <path class="cls-5" d="M101.45,0l48.189,79.046L202.9,155.5l-101.45-2.592L0,155.5,53.261,79.046Z"/>
      <path class="cls-8" d="M 101.4500198364258 48.02806854248047 L 74.21035766601562 92.71029663085938 L 48.75784301757812 129.2462463378906 L 101.4500122070312 127.900146484375 L 154.1421508789062 129.2462463378906 L 128.6896057128906 92.71029663085938 L 101.4500198364258 48.02806854248047 M 101.4500122070312 0 L 149.6387176513672 79.04585266113281 L 202.9000091552734 155.5 L 101.4500122070312 152.9082946777344 L 1.52587890625e-05 155.5 L 53.26126098632812 79.04585266113281 L 101.4500122070312 0 Z"/>
    </g>
  </g>
  <text id="dpGame" class="cls-3" transform="translate(455 285)"><tspan x="0" y="0">d</tspan><tspan class="cls-4" y="0">p</tspan><tspan y="0">Game</tspan></text>
</svg>
