<svg xmlns="http://www.w3.org/2000/svg" width="1498.727" height="1531.201" viewBox="0 0 1498.727 1531.201">
  <g id="金蛋_1_" data-name="金蛋 (1)" transform="translate(-174.851 485.483) rotate(-30)">
    <path id="路径_5" data-name="路径 5" d="M1103.947,660.335V482.89h-88.722V305.445H926.5V216.722H749.057V128H571.612v88.722H394.167v88.722H305.445V482.89H216.722V660.335H128V926.5h88.722v177.445h88.722v88.723H482.89v88.722H837.78v-88.722h177.445v-88.723h88.722V926.5h88.723V660.335Z"/>
    <path id="路径_6" data-name="路径 6" d="M192,813.057h88.722V901.78H192ZM280.722,990.5H458.167v88.722H280.722ZM990.5,635.612V458.167H901.78V280.722H724.335v88.722h88.723V901.78H724.335V990.5H635.612v88.722H458.167v88.723h354.89v-88.723H990.5V901.78h88.722V635.612ZM635.612,192h88.722v88.722H635.612Z" transform="translate(24.722 24.722)" fill="#dba213"/>
    <path id="路径_7" data-name="路径 7" d="M724.335,369.445V280.722H635.612V192H546.89v88.722H369.445V458.167H280.722V635.612H192V813.057h88.722V990.5H458.167v88.722H635.612V990.5h88.722V901.78h88.723V369.445Z" transform="translate(24.722 24.722)" fill="#eaee57"/>
    <path id="路径_8" data-name="路径 8" d="M408.722,320v88.722H320V586.167h88.722V497.445h88.722V320Z" transform="translate(74.167 74.167)" fill="#fff"/>
  </g>
</svg>
