<svg xmlns="http://www.w3.org/2000/svg" xmlns:xlink="http://www.w3.org/1999/xlink" width="416" height="416" viewBox="0 0 416 416">
  <defs>
    <filter id="路径_6" x="0" y="0" width="416" height="416" filterUnits="userSpaceOnUse">
      <feOffset dy="10" input="SourceAlpha"/>
      <feGaussianBlur stdDeviation="5" result="blur"/>
      <feFlood flood-opacity="0.161"/>
      <feComposite operator="in" in2="blur"/>
      <feComposite in="SourceGraphic"/>
    </filter>
  </defs>
  <g transform="matrix(1, 0, 0, 1, 0, 0)" filter="url(#路径_6)">
    <path id="路径_6-2" data-name="路径 6" d="M400-1261c-19.448,0-36.321-.69-51.581-2.109a278.813,278.813,0,0,1-42.182-6.845,151.862,151.862,0,0,1-33.56-12.358,110.788,110.788,0,0,1-13.79-8.489,99.449,99.449,0,0,1-11.926-10.159,99.453,99.453,0,0,1-10.159-11.926,110.773,110.773,0,0,1-8.489-13.79,151.861,151.861,0,0,1-12.358-33.561,278.821,278.821,0,0,1-6.845-42.182C207.69-1417.68,207-1434.552,207-1454s.69-36.321,2.109-51.581a278.812,278.812,0,0,1,6.845-42.182,151.865,151.865,0,0,1,12.358-33.56,110.753,110.753,0,0,1,8.489-13.79,99.449,99.449,0,0,1,10.159-11.926,99.42,99.42,0,0,1,11.926-10.159,110.73,110.73,0,0,1,13.79-8.489,151.858,151.858,0,0,1,33.56-12.358,278.844,278.844,0,0,1,42.182-6.845C363.679-1646.31,380.552-1647,400-1647s36.321.69,51.582,2.109a278.833,278.833,0,0,1,42.183,6.845,151.859,151.859,0,0,1,33.561,12.358,110.735,110.735,0,0,1,13.79,8.489,99.424,99.424,0,0,1,11.926,10.159,99.442,99.442,0,0,1,10.159,11.926,110.761,110.761,0,0,1,8.489,13.79,151.863,151.863,0,0,1,12.358,33.56,278.8,278.8,0,0,1,6.845,42.182C592.31-1490.321,593-1473.449,593-1454s-.69,36.321-2.109,51.582a278.805,278.805,0,0,1-6.845,42.182,151.865,151.865,0,0,1-12.358,33.561,110.771,110.771,0,0,1-8.489,13.79,99.447,99.447,0,0,1-10.159,11.926,99.453,99.453,0,0,1-11.926,10.159,110.793,110.793,0,0,1-13.79,8.489,151.865,151.865,0,0,1-33.561,12.358,278.818,278.818,0,0,1-42.183,6.845C436.32-1261.69,419.448-1261,400-1261Zm90-146a43.049,43.049,0,0,0-43,43,43.048,43.048,0,0,0,43,43,43.048,43.048,0,0,0,43-43A43.049,43.049,0,0,0,490-1407Zm-224-94a12.014,12.014,0,0,0-12,12v8a12.013,12.013,0,0,0,12,12H370a12.013,12.013,0,0,0,12-12v-8a12.014,12.014,0,0,0-12-12Zm0-66a12.013,12.013,0,0,0-12,12v8a12.014,12.014,0,0,0,12,12H498a12.014,12.014,0,0,0,12-12v-8a12.013,12.013,0,0,0-12-12Z" transform="translate(-192 1652)" fill="#2196f3"/>
  </g>
</svg>
